<svg width="64" height="64" viewBox="0 0 64 64" fill="none" xmlns="http://www.w3.org/2000/svg">
<g clip-path="url(#clip0_5898_1570)">
<rect width="64" height="64" fill="white"/>
<rect width="64" height="64" fill="#0A0A0A"/>
<path d="M20.87 8H32.28C36.2467 8 39.14 8.93333 40.96 10.8C42.78 12.62 43.69 15.4433 43.69 19.27V22.28C43.69 27.3667 42.01 30.5867 38.65 31.94V32.08C40.5167 32.64 41.8233 33.7833 42.57 35.51C43.3633 37.2367 43.76 39.5467 43.76 42.44V51.05C43.76 52.45 43.8067 53.5933 43.9 54.48C43.9933 55.32 44.2267 56.16 44.6 57H36.76C36.48 56.2067 36.2933 55.46 36.2 54.76C36.1067 54.06 36.06 52.8 36.06 50.98V42.02C36.06 39.78 35.6867 38.2167 34.94 37.33C34.24 36.4433 33.0033 36 31.23 36H28.57V57H20.87V8ZM31.37 29C32.91 29 34.0533 28.6033 34.8 27.81C35.5933 27.0167 35.99 25.6867 35.99 23.82V20.04C35.99 18.2667 35.6633 16.9833 35.01 16.19C34.4033 15.3967 33.4233 15 32.07 15H28.57V29H31.37Z" fill="white"/>
</g>
<defs>
<clipPath id="clip0_5898_1570">
<rect width="64" height="64" fill="white"/>
</clipPath>
</defs>
</svg>
