<svg width="140" height="140" viewBox="0 0 140 140" fill="none" xmlns="http://www.w3.org/2000/svg">
<g clip-path="url(#clip0_5902_1573)">
<rect width="140" height="140" fill="white"/>
<rect width="140" height="140" fill="white"/>
<path d="M45.6531 17.6875H70.6125C79.2896 17.6875 85.6188 19.7292 89.6 23.8125C93.5813 27.7937 95.5719 33.9698 95.5719 42.3406V48.925C95.5719 60.0521 91.8969 67.0958 84.5469 70.0562V70.3625C88.6302 71.5875 91.4885 74.0885 93.1219 77.8656C94.8573 81.6427 95.725 86.6958 95.725 93.025V111.859C95.725 114.922 95.8271 117.423 96.0313 119.362C96.2354 121.2 96.7458 123.037 97.5625 124.875H80.4125C79.8 123.14 79.3917 121.506 79.1875 119.975C78.9833 118.444 78.8813 115.687 78.8813 111.706V92.1062C78.8813 87.2062 78.0646 83.7865 76.4313 81.8469C74.9 79.9073 72.1948 78.9375 68.3156 78.9375H62.4969V124.875H45.6531V17.6875ZM68.6219 63.625C71.9906 63.625 74.4917 62.7573 76.125 61.0219C77.8604 59.2865 78.7281 56.3771 78.7281 52.2937V44.025C78.7281 40.1458 78.0135 37.3385 76.5844 35.6031C75.2573 33.8677 73.1135 33 70.1531 33H62.4969V63.625H68.6219Z" fill="#0A0A0A"/>
</g>
<defs>
<clipPath id="clip0_5902_1573">
<rect width="140" height="140" fill="white"/>
</clipPath>
</defs>
</svg>
